<?xml version="1.0" encoding="utf-8"?>
<!-- Generator: Adobe Illustrator 17.0.0, SVG Export Plug-In . SVG Version: 6.00 Build 0)  -->
<!DOCTYPE svg PUBLIC "-//W3C//DTD SVG 1.1//EN" "http://www.w3.org/Graphics/SVG/1.1/DTD/svg11.dtd">
<svg version="1.1" id="Capa_1" xmlns="http://www.w3.org/2000/svg" xmlns:xlink="http://www.w3.org/1999/xlink" x="0px" y="0px"
	 width="595.28px" height="841.89px" viewBox="0 0 595.28 841.89" enable-background="new 0 0 595.28 841.89" xml:space="preserve">
<g>
	<g>
		<polygon fill="#FFFFFF" stroke="#000000" stroke-width="5" stroke-miterlimit="10" points="424.417,173.333 424.75,124.5 
			390.25,90.167 340.917,90 306.25,122.833 306.25,124.333 306.583,173.333 340.75,207.333 341.25,207.167 389.917,207.5 		"/>
	</g>
	<g>
		<polygon stroke="#000000" stroke-width="5" stroke-miterlimit="10" points="416.743,170.059 417.034,127.393 386.891,97.396 
			343.788,97.25 313.5,125.937 313.5,127.247 313.791,170.059 343.643,199.765 344.08,199.619 386.6,199.91 		"/>
	</g>
	<text transform="matrix(1 0 0 1 324.3589 130.0181)" fill="#FFFFFF" font-family="'Arial-BoldMT'" font-size="17.1537">ALTO EN</text>
	<text transform="matrix(1 0 0 1 323.8056 146.0181)" fill="#FFFFFF" font-family="'Arial-BoldMT'" font-size="17.1537">GRASAS</text>
	<text transform="matrix(1 0 0 1 310.6557 162.0181)" fill="#FFFFFF" font-family="'Arial-BoldMT'" font-size="17.1537">SATURADAS</text>
	<text transform="matrix(1 0 0 1 321.7441 176.5181)" fill="#FFFFFF" font-family="'Arial-BoldMT'" font-size="9">Ministerio de Salud</text>
</g>
<g>
	<g>
		<polygon fill="#FFFFFF" stroke="#000000" stroke-width="5" stroke-miterlimit="10" points="161.417,167.333 161.75,118.5 
			127.25,84.167 77.917,84 43.25,116.833 43.25,118.333 43.583,167.333 77.75,201.333 78.25,201.167 126.917,201.5 		"/>
	</g>
	<g>
		<polygon stroke="#000000" stroke-width="5" stroke-miterlimit="10" points="153.743,164.059 154.034,121.393 123.891,91.396 
			80.788,91.25 50.5,119.937 50.5,121.247 50.791,164.059 80.643,193.765 81.08,193.619 123.6,193.91 		"/>
	</g>
	<text transform="matrix(1 0 0 1 59.0015 135.2441)"><tspan x="0" y="0" fill="#FFFFFF" font-family="'Arial-BoldMT'" font-size="18">ALTO EN </tspan><tspan x="4.003" y="21.6" fill="#FFFFFF" font-family="'Arial-BoldMT'" font-size="18">AZUCAR</tspan></text>
	<rect x="50" y="122" fill="none" width="70" height="39"/>
	<text transform="matrix(1 0 0 1 59.2441 172.0181)" fill="#FFFFFF" font-family="'Arial-BoldMT'" font-size="9">Ministerio de Salud</text>
</g>
<g>
	<g>
		<polygon fill="#FFFFFF" stroke="#000000" stroke-width="5" stroke-miterlimit="10" points="292.417,170.333 292.75,121.5 
			258.25,87.167 208.917,87 174.25,119.833 174.25,121.333 174.583,170.333 208.75,204.333 209.25,204.167 257.917,204.5 		"/>
	</g>
	<g>
		<polygon stroke="#000000" stroke-width="5" stroke-miterlimit="10" points="284.743,167.059 285.034,124.393 254.891,94.396 
			211.788,94.25 181.5,122.937 181.5,124.247 181.791,167.059 211.643,196.765 212.08,196.619 254.6,196.91 		"/>
	</g>
	<text transform="matrix(1 0 0 1 189.0014 135.7441)"><tspan x="0" y="0" fill="#FFFFFF" font-family="'Arial-BoldMT'" font-size="18">ALTO EN </tspan><tspan x="12.995" y="21.6" fill="#FFFFFF" font-family="'Arial-BoldMT'" font-size="18">SODIO</tspan></text>
	<text transform="matrix(1 0 0 1 190.2441 174.0181)" fill="#FFFFFF" font-family="'Arial-BoldMT'" font-size="9">Ministerio de Salud</text>
</g>
<g>
	<g>
		<polygon fill="#FFFFFF" stroke="#000000" stroke-width="5" stroke-miterlimit="10" points="555.417,174.333 555.75,125.5 
			521.25,91.167 471.917,91 437.25,123.833 437.25,125.333 437.583,174.333 471.75,208.333 472.25,208.167 520.917,208.5 		"/>
	</g>
	<g>
		<polygon stroke="#000000" stroke-width="5" stroke-miterlimit="10" points="547.743,171.059 548.034,128.393 517.891,98.396 
			474.788,98.25 444.5,126.937 444.5,128.247 444.791,171.059 474.643,200.765 475.08,200.619 517.6,200.91 		"/>
	</g>
	<text transform="matrix(1 0 0 1 448.3711 131.7865)" fill="#FFFFFF" font-family="'Arial-BoldMT'" font-size="17.6615">CONTIENE</text>
	<text transform="matrix(1 0 0 1 456.9723 148.0181)" fill="#FFFFFF" font-family="'Arial-BoldMT'" font-size="17.1537">GRASAS</text>
	<text transform="matrix(1 0 0 1 463.1252 164.1847)" fill="#FFFFFF" font-family="'Arial-BoldMT'" font-size="17.1537">TRANS</text>
	<text transform="matrix(1 0 0 1 452.7441 179.0181)" fill="#FFFFFF" font-family="'Arial-BoldMT'" font-size="9">Ministerio de Salud</text>
</g>
</svg>
